<svg xmlns="http://www.w3.org/2000/svg" viewBox="0 0 196 184.17"><defs><style>.cls-1{fill:#ffba03;}.cls-2{fill:#847726;opacity:0.3;}.cls-3{opacity:0.6;}</style></defs><g id="Layer_3" data-name="Layer 3"><path class="cls-1" d="M66.25,78.08,45.71,57.56,29.65,41.5,7.19,19a16.37,16.37,0,0,1-2.91-3.91L36.19,0,89.66,53.45Z"/><path class="cls-2" d="M41.94,53.79a.11.11,0,0,0,.18-.1c-1.64-5.31-4.68-31.93-5.12-46-.16-5.11,1.17-4.8,2.6-4a.11.11,0,0,0,.13-.17L36.32.12a.1.1,0,0,0-.17.07l-6.49,41.3a.08.08,0,0,0,0,.09Z"/><path class="cls-1" d="M4.28,15.12l-2,1a.11.11,0,0,0-.06.09V170.31a.12.12,0,0,0,.07.1l16.92,6.67,16,6.32.95-.08V-.29A.12.12,0,0,0,36-.39Z"/><g class="cls-3"><path class="cls-2" d="M36,128.2a.11.11,0,0,1,.2.06v49.52a17.14,17.14,0,0,1-.92,5.52.11.11,0,0,1-.14.06L19.2,177.08,2.28,170.41a.12.12,0,0,1-.07-.1v-5.83a.11.11,0,0,1,.21,0c1.22,3.21,5.29-1.18,6.25-2.14S32.12,134.7,36,128.2Z"/></g><path class="cls-1" d="M193.77,12.74,159.83,1.42h0L99.23,66.38,79.73,87.29,36.19,134l-17,18.21L2.31,170.27l-.1.11,17,6.7,16,6.32.95.37L155.13,56.26l4.68-5,0,0L176.8,33v0l13.4-14.36c.21-.22.41-.45.59-.67l.3-.39c.13-.16.26-.33.38-.5s.46-.64.68-1l.34-.59.26-.46a16.88,16.88,0,0,0,.73-1.55c.11-.26.2-.5.3-.76v0S193.77,12.73,193.77,12.74Z"/><g class="cls-3"><path class="cls-2" d="M193.29,12.71l.07.14a16.08,16.08,0,0,1-1,2.2c-.08.16-.16.31-.25.46s-.24.4-.34.59-.44.66-.68,1-.25.34-.38.5l-.3.39-.6.67L176.42,33v0l-17,18.19v0S156.54,54.42,155,56a.11.11,0,0,1-.18-.1c3.14-14,4.28-40.93,4-46.64-.22-4.17-1.59-4.2-2.35-3.92a.11.11,0,0,1-.12-.17l3.46-3.7a.11.11,0,0,1,.11,0Z"/></g><path class="cls-1" d="M193.79,12.7V87.21h-34V1.42h0l33.94,11.32S193.79,12.71,193.79,12.7Z"/><circle class="cls-1" cx="134.03" cy="121.76" r="16.17"/></g></svg>