<svg xmlns="http://www.w3.org/2000/svg" xmlns:xlink="http://www.w3.org/1999/xlink" viewBox="0 0 191.58 184.17"><defs><style>.cls-1{fill:url(#linear-gradient);}.cls-2{fill:#847726;opacity:0.3;}.cls-3{fill:url(#linear-gradient-2);}.cls-4{opacity:0.6;}.cls-5{fill:url(#linear-gradient-3);}.cls-6{fill:url(#linear-gradient-4);}.cls-7{fill:url(#linear-gradient-5);}</style><linearGradient id="linear-gradient" x1="13.6" y1="4.03" x2="77.51" y2="67.94" gradientUnits="userSpaceOnUse"><stop offset="0" stop-color="#fcee21"/><stop offset="1" stop-color="#f7c934"/></linearGradient><linearGradient id="linear-gradient-2" x1="16.99" y1="0" x2="16.99" y2="183.8" xlink:href="#linear-gradient"/><linearGradient id="linear-gradient-3" x1="9" y1="179.79" x2="183.63" y2="5.16" xlink:href="#linear-gradient"/><linearGradient id="linear-gradient-4" x1="174.59" y1="1.82" x2="174.59" y2="96.44" xlink:href="#linear-gradient"/><linearGradient id="linear-gradient-5" x1="131.82" y1="105.99" x2="131.82" y2="138.33" gradientUnits="userSpaceOnUse"><stop offset="0" stop-color="#fcee21"/><stop offset="1" stop-color="#fbe32b"/></linearGradient></defs><g id="Layer_2" data-name="Layer 2"><g id="Layer_1-2" data-name="Layer 1"><path class="cls-1" d="M77.55,67.9a17,17,0,0,1-24.06,0l-10-10L27.44,41.9,5,19.43a16.92,16.92,0,0,1-2.85-3.81.11.11,0,0,1,0-.15L33.91.41a.11.11,0,0,1,.12,0l43.1,43.11C83.82,50.22,84.21,61.2,77.55,67.9Z"/><path class="cls-2" d="M39.73,54.19a.1.1,0,0,0,.18-.09c-1.64-5.32-4.68-31.94-5.12-46-.16-5.11,1.16-4.8,2.6-4a.11.11,0,0,0,.13-.17L34.11.52a.1.1,0,0,0-.17.07l-6.49,41.3a.08.08,0,0,0,0,.09Z"/><path class="cls-3" d="M2.07,15.52l-2,.95a.1.1,0,0,0-.06.1V170.71a.11.11,0,0,0,.07.1L17,177.48l16,6.32.95-.07V.11a.11.11,0,0,0-.15-.1Z"/><g class="cls-4"><path class="cls-2" d="M33.78,128.6a.1.1,0,0,1,.19.06v49.52a17.13,17.13,0,0,1-.91,5.52.12.12,0,0,1-.14.06L17,177.48.07,170.81a.11.11,0,0,1-.07-.1v-5.83a.1.1,0,0,1,.2,0c1.23,3.21,5.3-1.18,6.26-2.13S29.91,135.1,33.78,128.6Z"/></g><path class="cls-5" d="M191.56,13.14,157.62,1.82h0L97,66.78,77.52,87.7,34,134.36,17,152.57.1,170.68l-.1.1,17,6.7,16,6.32.95.37L152.91,56.66l4.69-5,0,0,17-18.19v0L188,19c.21-.22.41-.45.59-.67s.2-.25.3-.39.25-.33.38-.5c.24-.32.46-.64.68-1s.23-.4.34-.59a5,5,0,0,0,.25-.46,14.67,14.67,0,0,0,.74-1.55c.11-.26.2-.5.3-.76v0Z"/><g class="cls-4"><path class="cls-2" d="M191.08,13.11l.07.14a16.77,16.77,0,0,1-1,2.2,3.42,3.42,0,0,1-.26.46l-.34.59a10.72,10.72,0,0,1-.68,1,6,6,0,0,1-.38.5,4,4,0,0,1-.3.39l-.59.67L174.21,33.4v0l-17,18.19v0s-2.89,3.19-4.43,4.77a.11.11,0,0,1-.18-.09c3.13-14,4.28-40.94,4-46.65-.22-4.17-1.6-4.2-2.35-3.92a.11.11,0,0,1-.12-.17l3.46-3.7a.11.11,0,0,1,.11,0Z"/></g><path class="cls-6" d="M191.58,13.1V79.45A17,17,0,0,1,176,96.38c-10,.84-18.43-7.46-18.43-17.5V1.82h0l33.94,11.32Z"/><circle class="cls-7" cx="131.82" cy="122.16" r="16.17"/></g></g></svg>