<?xml version="1.0" standalone="no"?>
<!DOCTYPE svg PUBLIC "-//W3C//DTD SVG 20010904//EN"
 "http://www.w3.org/TR/2001/REC-SVG-20010904/DTD/svg10.dtd">
<svg version="1.0" xmlns="http://www.w3.org/2000/svg"
 width="784.000000pt" height="784.000000pt" viewBox="0 0 784.000000 784.000000"
 preserveAspectRatio="xMidYMid meet">
<metadata>
Created by potrace 1.14, written by Peter Selinger 2001-2017
</metadata>
<g transform="translate(0.000000,784.000000) scale(0.100000,-0.100000)"
fill="#000000" stroke="none">
<path d="M1270 7533 c-171 -84 -715 -350 -881 -431 -69 -34 -131 -62 -138 -62
-6 0 -11 -4 -11 -10 0 -5 -7 -10 -15 -10 -8 0 -37 -13 -65 -30 -28 -16 -55
-30 -60 -30 -12 0 -11 476 -11 -3104 0 -1688 4 -3072 8 -3076 7 -7 233 -97
393 -157 36 -14 79 -30 95 -38 32 -14 67 -28 75 -29 3 -1 86 -34 186 -74 99
-39 186 -72 192 -72 7 0 12 -5 12 -10 0 -6 3 -9 8 -8 7 2 104 -32 147 -52 48
-21 228 -90 237 -90 6 0 19 9 28 21 17 18 180 194 255 274 43 45 237 254 275
295 18 19 80 86 139 149 58 62 123 132 144 155 21 22 87 93 147 156 60 63 118
126 130 140 12 14 73 79 135 145 62 66 126 134 141 150 15 17 77 84 139 150
62 66 127 136 145 155 36 39 229 246 275 295 17 18 77 83 135 145 58 62 123
132 145 155 22 24 85 91 140 150 55 60 115 124 134 144 18 20 80 86 136 146
57 61 115 124 131 140 43 48 245 264 289 310 22 24 83 89 135 145 52 57 111
120 130 140 19 20 85 90 145 155 61 66 124 133 140 151 77 81 246 262 270 289
15 17 76 82 135 145 60 63 125 134 147 156 106 115 256 276 324 348 42 45 89
95 104 111 37 41 194 209 282 303 65 68 73 74 74 52 0 -14 1 -337 1 -717 l0
-693 679 0 679 0 0 98 c1 53 2 724 3 1490 l2 1393 -40 11 c-22 6 -44 15 -50
18 -8 6 -38 16 -75 25 -3 0 -77 25 -165 55 -88 30 -162 55 -165 55 -19 3 -207
69 -216 76 -6 5 -13 7 -16 4 -2 -3 -29 5 -59 16 -30 11 -70 25 -89 30 -19 6
-44 14 -55 19 -22 9 -69 24 -72 22 -2 -1 -23 7 -48 18 -25 11 -49 20 -53 20
-12 1 -45 11 -67 20 -56 24 -186 61 -195 55 -10 -6 -59 -57 -126 -131 -30 -33
-213 -228 -289 -309 -27 -29 -93 -99 -145 -156 -52 -56 -117 -126 -145 -155
-27 -29 -88 -94 -135 -145 -47 -50 -101 -109 -120 -129 -19 -20 -84 -90 -145
-155 -60 -65 -121 -131 -135 -145 -70 -75 -242 -259 -266 -285 -14 -16 -80
-86 -145 -155 -65 -69 -128 -137 -141 -152 -13 -14 -68 -74 -123 -133 -165
-176 -176 -188 -285 -305 -58 -62 -125 -134 -150 -160 -25 -27 -88 -94 -140
-150 -52 -57 -108 -117 -125 -134 -16 -18 -82 -88 -145 -156 -63 -68 -126
-135 -140 -150 -72 -77 -232 -249 -260 -280 -34 -36 -209 -224 -317 -339 -34
-36 -74 -79 -89 -96 -15 -16 -82 -88 -148 -159 -163 -174 -176 -187 -271 -291
-46 -49 -101 -108 -122 -131 -21 -22 -85 -91 -143 -154 -58 -62 -123 -132
-145 -155 -22 -23 -83 -88 -135 -145 -52 -56 -115 -123 -139 -149 -24 -25 -89
-95 -145 -155 -111 -120 -127 -136 -129 -136 -1 0 -2 772 -2 1715 0 943 3
1714 7 1712 9 -3 126 -115 136 -130 4 -7 245 -248 534 -537 l527 -524 73 76
c40 42 127 133 193 202 66 70 152 160 190 200 39 40 135 142 215 227 80 84
171 180 203 212 31 32 57 61 57 66 0 4 -480 487 -1066 1074 -753 753 -1073
1067 -1088 1067 -12 -1 -82 -31 -156 -67z"/>
<path d="M5317 3374 c-1 -1 -25 -4 -54 -8 -197 -23 -392 -169 -486 -363 -26
-54 -34 -78 -52 -158 -8 -36 -10 -190 -2 -225 21 -100 48 -167 104 -258 33
-55 163 -169 233 -206 38 -20 70 -34 70 -30 0 3 6 2 13 -4 26 -22 105 -34 222
-35 99 0 131 4 185 22 77 27 170 72 170 83 0 4 4 8 10 8 18 0 80 57 136 125
35 44 96 153 107 195 3 8 6 18 7 22 34 98 33 266 -2 378 -14 46 -61 144 -70
148 -5 2 -8 8 -8 13 0 25 -122 147 -192 191 -106 67 -202 96 -336 102 -29 1
-54 1 -55 0z"/>
</g>
</svg>
