<?xml version="1.0" standalone="no"?>
<!DOCTYPE svg PUBLIC "-//W3C//DTD SVG 20010904//EN"
 "http://www.w3.org/TR/2001/REC-SVG-20010904/DTD/svg10.dtd">
<svg version="1.0" xmlns="http://www.w3.org/2000/svg"
 width="768.000000pt" height="768.000000pt" viewBox="0 0 768.000000 768.000000"
 preserveAspectRatio="xMidYMid meet">
<metadata>
Created by potrace 1.14, written by Peter Selinger 2001-2017
</metadata>
<g transform="translate(0.000000,768.000000) scale(0.100000,-0.100000)"
fill="#000000" stroke="none">
<path d="M1210 7460 c-74 -37 -223 -111 -330 -163 -107 -52 -289 -140 -404
-196 -114 -56 -218 -107 -230 -112 -11 -5 -28 -13 -36 -18 -8 -5 -59 -31 -112
-56 l-98 -47 0 -3093 0 -3094 22 -6 c23 -7 378 -146 433 -170 17 -7 57 -23 90
-35 33 -12 68 -26 79 -32 10 -5 26 -11 35 -13 23 -5 172 -65 213 -86 10 -5 22
-9 28 -9 6 0 29 -9 53 -19 23 -10 124 -51 224 -90 l182 -72 33 34 c18 19 72
76 120 128 47 52 109 119 138 149 29 30 92 98 140 150 49 52 105 113 127 136
44 47 132 141 288 309 61 65 124 132 140 150 17 17 80 85 140 150 61 65 133
142 160 171 28 29 93 99 145 155 52 56 109 117 125 134 17 18 80 86 142 151
61 66 124 133 139 149 15 17 77 84 138 149 61 66 125 134 141 151 27 30 182
196 274 294 20 22 84 90 143 152 58 63 119 128 134 144 15 17 80 86 144 155
65 69 142 151 171 183 30 33 72 78 94 102 22 23 90 95 150 160 61 65 130 139
155 165 25 26 84 90 132 141 47 52 110 119 140 150 46 49 195 209 282 303 25
27 87 94 323 345 29 31 69 74 89 96 20 22 87 93 148 159 120 128 138 147 296
316 58 62 112 120 120 129 48 52 46 83 46 -527 1 -556 2 -596 25 -697 13 -55
88 -215 101 -215 4 0 8 -5 8 -10 0 -15 64 -86 126 -140 47 -41 166 -108 204
-116 3 0 12 -3 20 -7 13 -5 45 -13 90 -24 28 -6 185 -5 220 1 19 4 53 12 75
18 22 6 42 12 45 13 19 4 131 63 160 84 59 42 154 143 185 196 45 76 63 120
85 204 19 74 19 117 20 1443 l0 1367 -30 16 c-16 8 -32 15 -35 15 -3 0 -7 1
-10 1 -3 1 -8 2 -12 3 -14 3 -237 77 -258 85 -30 12 -88 32 -105 36 -21 5
-111 34 -135 44 -11 5 -65 23 -120 41 -55 17 -107 34 -115 37 -8 4 -17 7 -20
8 -3 0 -90 29 -195 65 -104 35 -191 62 -193 61 -1 -1 -16 6 -32 14 -17 9 -30
13 -30 11 0 -3 -15 1 -33 9 -39 16 -34 20 -167 -125 -47 -51 -103 -112 -125
-135 -22 -23 -85 -91 -140 -150 -55 -59 -118 -127 -140 -150 -51 -53 -247
-263 -311 -334 -27 -29 -74 -79 -104 -110 -30 -32 -82 -87 -114 -122 -33 -35
-110 -118 -172 -184 -172 -183 -204 -219 -204 -227 0 -5 -7 -8 -15 -8 -8 0
-15 -3 -15 -8 0 -4 -25 -34 -56 -67 -30 -33 -101 -109 -157 -170 -56 -60 -132
-141 -168 -180 -37 -38 -78 -83 -92 -98 -14 -16 -76 -83 -139 -149 -158 -169
-161 -171 -278 -298 -135 -145 -149 -161 -245 -262 -44 -47 -123 -132 -175
-188 -52 -56 -111 -119 -130 -139 -19 -21 -84 -91 -145 -156 -60 -65 -127
-137 -148 -159 -21 -23 -80 -86 -130 -140 -96 -104 -100 -108 -212 -227 -170
-181 -306 -326 -331 -354 -14 -16 -77 -84 -139 -150 -62 -66 -128 -136 -145
-155 -18 -19 -83 -89 -145 -155 -62 -66 -139 -149 -171 -184 -32 -35 -83 -89
-112 -120 -30 -31 -91 -96 -135 -145 -45 -49 -117 -126 -160 -170 -74 -76 -78
-79 -76 -51 2 17 0 35 -4 42 -4 6 -3 14 2 18 7 4 7 15 1 30 -5 14 -6 25 -2 25
9 0 8 163 -2 178 -4 7 -4 17 0 23 6 11 10 279 4 304 -1 6 -2 12 -1 15 3 8 4
294 1 305 -1 6 -2 12 -1 15 3 8 4 294 1 305 -1 6 -2 12 -1 15 3 8 4 294 1 305
-1 6 -2 12 -1 15 5 13 4 180 -1 185 -3 3 -2 24 2 45 4 22 3 43 -1 46 -5 3 -6
10 -3 16 9 15 11 138 2 138 -4 0 -3 12 1 28 5 15 5 36 1 47 -4 11 -5 24 -3 28
7 12 9 128 2 133 -4 2 -3 22 1 44 4 22 3 43 -1 46 -5 3 -6 10 -3 16 9 15 11
138 2 138 -4 0 -3 12 1 28 5 15 5 36 1 47 -4 11 -5 24 -3 28 7 12 9 128 2 133
-4 2 -3 22 1 44 4 22 3 43 -1 46 -5 3 -6 10 -3 16 9 15 11 138 2 138 -4 0 -3
12 1 28 5 15 4 37 0 50 -5 13 -5 21 -1 18 9 -6 7 157 -3 174 -4 7 -4 15 1 19
11 8 10 113 -1 131 -22 35 49 -32 425 -407 223 -222 427 -419 455 -438 116
-83 252 -124 403 -123 205 2 366 80 521 253 18 20 85 131 90 150 2 6 7 20 12
33 9 23 12 35 28 112 16 72 6 246 -17 318 -11 34 -17 62 -14 62 3 0 -2 8 -10
18 -8 9 -21 32 -28 51 -7 18 -32 59 -55 90 -32 43 -1812 1834 -1819 1830 0 -1
-62 -32 -136 -69z"/>
<path d="M5250 3280 c0 -3 -15 -5 -34 -5 -19 1 -63 -6 -98 -15 -67 -17 -198
-78 -198 -92 0 -4 -6 -8 -12 -8 -11 0 -121 -108 -155 -152 -24 -31 -76 -139
-89 -183 -17 -60 -25 -119 -26 -195 -3 -255 162 -497 407 -596 96 -39 157 -47
323 -42 9 0 38 6 65 13 26 8 47 12 47 9 0 -3 10 2 22 10 12 9 29 16 36 16 8 0
27 9 43 21 16 11 29 18 29 14 0 -13 119 86 164 137 44 50 123 189 131 233 2
11 4 20 5 20 1 0 3 9 5 20 2 11 7 35 10 54 7 35 8 164 2 191 -2 8 -7 33 -12
55 -13 69 -90 217 -145 278 -85 94 -199 165 -315 196 -80 21 -205 34 -205 21z"/>
</g>
</svg>
